<svg version="1.1" id="Layer_1" xmlns="http://www.w3.org/2000/svg"
	xmlns:xlink="http://www.w3.org/1999/xlink" viewBox="100 100 1724 824">
	<style>
    path, text {
      fill: black;
      font-family: Georgia;
    }

    @media (prefers-color-scheme: dark) {
      path, text {
        fill: white;
      }
    }
  </style>
	<text x="52%" y="100%" font-size="800px">ak</text>
	<!-- Circle -->
	<path
		d="
M886.301636,577.036804
	C881.942627,601.935425 875.450684,625.831604 866.340271,648.933655
	C836.667725,724.177063 788.013123,784.378357 720.901733,829.281860
	C678.493591,857.656616 631.904907,876.479187 581.453613,885.131531
	C554.186035,889.807861 526.694214,892.399170 499.016022,891.236938
	C436.746918,888.622070 378.444397,872.205444 324.538635,840.550110
	C278.504608,813.517273 239.407272,778.816956 208.106415,735.561096
	C174.640747,689.313477 152.152893,638.220093 141.633072,581.987793
	C137.405502,559.389832 135.148697,536.561340 134.988419,513.617188
	C134.706467,473.256927 141.741974,434.004608 153.354614,395.376770
	C166.875229,350.402374 188.675125,309.894653 217.745682,273.292847
	C240.142914,245.093231 266.337189,220.698700 295.704987,199.812576
	C339.352844,168.770645 387.478210,148.014542 440.133301,138.165298
	C460.205902,134.410660 480.459900,132.036957 500.987366,131.486679
	C576.034485,129.474792 645.757568,147.691071 709.721558,186.701782
	C751.779114,212.352112 787.794434,245.031067 817.227478,284.803009
	C831.048950,303.479614 843.496704,322.949280 853.477478,343.913116
	C867.615784,373.609467 878.593506,404.386475 884.377380,436.896332
	C888.073792,457.672363 891.053833,478.466614 891.514954,499.648163
	C892.034058,523.487610 891.154114,547.173401 887.361877,570.725952
	C887.045593,572.690247 886.675903,574.645996 886.301636,577.036804
M173.967392,486.130096
	C173.772003,487.276062 173.449432,488.416565 173.399811,489.568817
	C172.150131,518.576477 173.769714,547.390320 178.791214,576.025696
	C185.186813,612.496948 198.513092,646.382935 216.342010,678.648438
	C238.903412,719.478394 269.107056,753.724426 305.722565,782.448181
	C359.728912,824.814514 420.733612,849.333069 489.422882,853.495239
	C518.355896,855.248413 547.279358,854.370361 575.883118,848.680725
	C630.195618,837.877075 679.594482,816.459656 722.787781,781.362061
	C758.594727,752.266235 788.506653,718.250671 810.973816,677.777039
	C824.207886,653.936401 834.912048,629.139099 842.168701,602.820862
	C847.351013,584.025452 850.779968,564.932495 852.483521,545.559875
	C853.618896,532.648926 854.658752,519.644836 854.343506,506.716522
	C854.065125,495.298523 853.188538,483.835968 851.822937,472.421509
	C848.494019,444.596527 842.792297,417.457916 832.851624,391.128021
	C804.703735,316.572723 755.489136,259.610901 688.193542,218.072739
	C655.846741,198.106674 620.830139,184.068054 583.301941,176.705124
	C563.701782,172.859589 543.995789,170.049911 524.039062,169.429184
	C505.397247,168.849350 486.841309,169.882599 468.292999,172.285065
	C433.687897,176.767334 400.588654,186.252838 368.958069,200.826904
	C325.161072,221.006744 287.775482,249.786697 256.477875,286.369232
	C207.457230,343.667542 179.322830,409.717468 173.967392,486.130096
z" />
	<!-- Leaf -->
	<path
		d="
M359.004028,489.006866
	C349.316956,480.050415 339.636658,471.480347 332.619537,460.630524
	C323.704926,446.846771 319.208710,431.809235 321.731537,415.139099
	C324.820831,394.725983 341.806793,384.290741 362.356537,390.267975
	C373.331360,393.460175 382.184967,400.322784 391.243591,406.824158
	C395.440216,409.836060 399.481415,413.066681 404.369629,414.951324
	C412.265076,417.995422 418.627899,413.812500 418.607208,405.355438
	C418.585266,396.379669 414.362762,388.688293 410.472046,380.974487
	C403.728882,367.605316 396.100983,354.651917 392.364380,339.942230
	C389.277802,327.791595 388.473694,315.800903 392.618774,303.633972
	C398.541260,286.249847 417.946136,280.508911 431.810516,292.383728
	C434.581665,294.757172 437.065643,297.476288 439.592712,300.121368
	C442.008453,302.649902 444.233521,305.376587 447.235718,307.263733
	C451.105927,309.696411 455.070312,312.101379 459.775574,309.540588
	C464.635864,306.895508 466.361420,302.519653 466.714691,297.127228
	C467.781525,280.844086 470.237244,264.766815 475.331635,249.211700
	C477.963715,241.175018 482.707458,234.280060 488.411621,228.135818
	C505.442841,209.790649 531.600159,217.288391 542.763489,235.832077
	C550.695251,249.007675 554.871948,263.431458 556.395569,278.719360
	C557.134766,286.135895 558.059082,293.579529 559.612183,300.858826
	C561.961975,311.872192 570.740417,315.011536 579.994263,308.638184
	C584.572205,305.485229 588.307800,301.477570 591.950989,297.356720
	C594.266602,294.737518 596.483704,292.042877 599.284668,289.881317
	C606.088806,284.630341 612.602783,284.164459 619.943726,288.767517
	C629.521973,294.773407 633.572327,304.029419 634.276917,314.833527
	C635.391418,331.920197 630.584167,347.721954 623.091187,362.861237
	C617.999451,373.149017 611.740417,382.861572 607.869263,393.751587
	C606.754883,396.886169 605.842346,400.055267 605.092224,403.314178
	C604.114868,407.560394 604.328186,411.425476 607.705200,414.273254
	C611.482971,417.458923 615.972473,417.470245 620.429199,415.603851
	C628.980042,412.022919 636.049438,406.082886 643.528931,400.827179
	C651.824158,394.998322 660.757080,390.805176 670.756836,388.971100
	C682.603271,386.798340 696.451721,393.851471 701.332520,404.997253
	C708.871094,422.212097 704.810913,438.678406 696.743469,454.349091
	C690.263428,466.936249 680.230469,476.903778 669.728943,486.199493
	C655.591614,498.713501 642.429199,512.114441 630.633789,526.854248
	C628.302612,529.767395 625.794006,532.799744 628.467834,536.682922
	C631.030029,540.403931 634.747986,541.241516 639.072205,540.229919
	C648.843750,537.944092 658.765137,536.283081 668.713318,538.386047
	C683.942810,541.605347 689.892639,551.383911 686.937500,566.699036
	C684.275330,580.496094 676.070190,590.302307 665.205750,598.429077
	C650.052246,609.764099 632.423950,616.010925 615.162842,623.038757
	C606.981750,626.369568 599.039856,630.220520 591.347900,634.567810
	C587.547791,636.715515 584.117920,639.344849 581.453979,642.860168
	C578.125183,647.252747 578.961121,650.645142 584.208130,652.484619
	C588.113464,653.853760 592.230408,654.620544 596.256165,655.643860
	C597.543213,655.971008 598.853333,656.212830 600.130249,656.573914
	C613.878235,660.462585 618.159119,670.470154 611.456055,683.108459
	C605.961975,693.467285 596.799622,700.208435 587.711182,706.998962
	C577.308472,714.771362 566.535095,722.021912 556.193909,729.897644
	C535.386841,745.744080 525.300415,766.804321 524.399109,792.603760
	C524.303955,795.326477 523.696472,797.853760 522.825867,800.381714
	C521.053162,805.529175 517.377625,807.630188 512.063782,807.392151
	C506.910400,807.161133 503.083069,804.584717 501.892853,799.443481
	C500.775146,794.615601 499.855316,789.625427 499.779938,784.692444
	C499.417297,760.957275 487.293274,743.838867 469.300720,730.128906
	C455.655304,719.731262 440.476105,711.486938 427.081665,700.719543
	C419.179474,694.367310 412.493286,687.092102 410.397186,676.607178
	C408.947052,669.353394 411.390594,663.306458 417.718994,659.643677
	C421.208588,657.624084 424.992584,656.377319 428.956085,655.647400
	C433.458008,654.818420 437.548401,653.075989 441.085876,650.111877
	C444.644653,647.129883 444.873505,645.009521 441.404724,641.930298
	C436.006531,637.138367 429.785461,633.564636 423.169495,630.729309
	C402.816406,622.006653 382.168976,613.915344 363.472321,601.760925
	C352.334320,594.520325 343.024109,585.864929 338.507233,572.856445
	C334.914948,562.510803 336.166687,553.009094 343.340942,544.837036
	C349.972656,537.282898 359.051300,536.920959 368.265320,538.116699
	C374.178467,538.884155 379.934875,540.804260 385.978333,540.626953
	C396.581116,540.315918 399.631287,535.067261 394.696899,525.564575
	C392.455841,521.248657 389.555511,517.390808 386.053436,514.002563
	C377.312836,505.545959 368.557312,497.105286 359.004028,489.006866
M509.343964,384.574646
	C508.312286,405.105072 508.789215,425.748901 505.209473,446.220642
	C498.816833,438.278137 493.868530,429.822174 487.302460,422.504822
	C480.777496,415.233307 474.158875,408.148041 466.490692,401.622833
	C465.157013,404.102478 465.940338,404.837402 466.541504,405.611603
	C474.635498,416.034790 481.249756,427.434937 488.112823,438.653931
	C495.073547,450.032532 501.383514,461.750214 503.813629,475.131989
	C505.158447,482.537323 505.395966,489.975891 505.394684,497.478912
	C505.390564,521.631226 504.917664,545.790771 506.222839,569.930420
	C506.360168,572.469360 506.741089,575.111938 505.438721,578.636292
	C486.527679,552.970947 466.066345,530.169250 437.956268,515.571045
	C441.581940,519.346802 444.461151,523.681213 448.121307,527.365540
	C458.700134,538.014221 468.841156,549.041931 477.696381,561.207153
	C489.545746,577.485657 499.647278,594.590576 503.853180,614.612427
	C506.814789,628.711060 506.497955,643.075928 507.206451,657.335083
	C508.007721,673.462219 507.848602,689.634827 508.425079,705.776306
	C508.756989,715.070190 509.557068,724.357910 510.501099,733.612244
	C510.760620,736.156738 510.561371,739.299316 513.251709,741.127075
	C514.684204,740.246094 514.516113,739.020813 514.689331,737.882751
	C518.250916,714.481201 518.351379,690.834900 519.594360,667.275085
	C520.304016,653.824280 522.664124,640.842346 528.928589,628.830017
	C540.837402,605.994568 557.741028,587.370911 577.799683,571.443726
	C579.174805,570.351807 581.520508,569.810364 581.026245,565.641663
	C554.983459,577.977600 536.714661,597.661926 520.670593,619.801514
	C519.187988,618.833374 519.528320,617.611450 519.530640,616.472351
	C519.575378,594.474182 519.634338,572.476074 519.651306,550.477905
	C519.673157,522.151794 526.482605,495.460541 539.307373,470.314789
	C544.979797,459.192871 551.390259,448.449341 557.190247,437.389618
	C559.398987,433.177887 560.835938,428.561432 562.847046,423.578278
	C559.879578,424.079498 559.046509,425.637329 557.893799,426.774963
	C543.056458,441.418976 533.445679,459.510101 524.156433,477.824829
	C523.277283,479.558228 522.988098,482.015167 520.047607,482.507385
	C519.854553,481.274658 519.593872,480.323914 519.572144,479.367737
	C518.906006,450.061584 518.223206,420.755646 517.632080,391.447937
	C517.286133,374.296143 516.405090,357.159912 516.475769,339.991791
	C516.497314,334.752258 516.189819,329.292755 513.816833,324.247437
	C510.853973,343.979614 510.375702,363.811310 509.343964,384.574646
z" />
</svg>
